<mxfile host="app.diagrams.net" agent="Mozilla/5.0 (Windows NT 10.0; Win64; x64) AppleWebKit/537.36 (KHTML, like Gecko) Chrome/141.0.0.0 Safari/537.36" version="28.2.7">
  <diagram name="ページ1" id="pHz5Qj9rXcHrBJZ8pDJP">
    <mxGraphModel dx="1778" dy="1695" grid="1" gridSize="10" guides="1" tooltips="1" connect="1" arrows="1" fold="1" page="1" pageScale="1" pageWidth="827" pageHeight="1169" math="0" shadow="0">
      <root>
        <mxCell id="0" />
        <mxCell id="1" parent="0" />
        <mxCell id="kXX9xbHAI2BbOv3aAVYk-1" value="" style="rounded=0;whiteSpace=wrap;html=1;fontSize=14;fillColor=#B9E0A5;opacity=50;strokeWidth=3;strokeColor=#994C00;movable=1;resizable=1;rotatable=1;deletable=1;editable=1;locked=0;connectable=1;" parent="1" vertex="1">
          <mxGeometry x="-290" y="90" width="950" height="660" as="geometry" />
        </mxCell>
        <mxCell id="kXX9xbHAI2BbOv3aAVYk-2" value="" style="rounded=0;whiteSpace=wrap;html=1;fontSize=14;fillColor=#994C00;opacity=50;strokeWidth=3;strokeColor=#6F0000;fontColor=#ffffff;movable=1;resizable=1;rotatable=1;deletable=1;editable=1;locked=0;connectable=1;" parent="1" vertex="1">
          <mxGeometry x="-90" y="230" width="540" height="380" as="geometry" />
        </mxCell>
        <mxCell id="kXX9xbHAI2BbOv3aAVYk-3" value="" style="rounded=1;whiteSpace=wrap;html=1;fillColor=#ffe6cc;strokeColor=#d79b00;arcSize=10;" parent="1" vertex="1">
          <mxGeometry x="-50.000000000000014" y="15" width="68.79" height="70" as="geometry" />
        </mxCell>
        <mxCell id="kXX9xbHAI2BbOv3aAVYk-4" value="" style="rounded=1;whiteSpace=wrap;html=1;fillColor=#ffe6cc;strokeColor=#d79b00;arcSize=10;" parent="1" vertex="1">
          <mxGeometry x="480" y="-52.72000000000003" width="70" height="67.72" as="geometry" />
        </mxCell>
        <mxCell id="kXX9xbHAI2BbOv3aAVYk-5" value="" style="rounded=1;whiteSpace=wrap;html=1;fillColor=#ffe6cc;strokeColor=#d79b00;arcSize=10;" parent="1" vertex="1">
          <mxGeometry x="320" y="930" width="70" height="64.6" as="geometry" />
        </mxCell>
        <mxCell id="kXX9xbHAI2BbOv3aAVYk-6" value="" style="group;rotation=-135;" parent="1" vertex="1" connectable="0">
          <mxGeometry x="411.99786437626904" y="-9.670000000000016" width="68.2842712474619" height="59.67213562373098" as="geometry" />
        </mxCell>
        <mxCell id="kXX9xbHAI2BbOv3aAVYk-7" value="1" style="shape=or;whiteSpace=wrap;html=1;rotation=-225;align=left;fillColor=#f5f5f5;strokeColor=#666666;fontColor=#333333;" parent="kXX9xbHAI2BbOv3aAVYk-6" vertex="1">
          <mxGeometry x="9" y="34" width="20" height="20" as="geometry" />
        </mxCell>
        <mxCell id="kXX9xbHAI2BbOv3aAVYk-8" value="2" style="shape=or;whiteSpace=wrap;html=1;rotation=-90;align=left;fillColor=#f5f5f5;strokeColor=#666666;fontColor=#333333;" parent="kXX9xbHAI2BbOv3aAVYk-6" vertex="1">
          <mxGeometry x="21" y="-5" width="20" height="20" as="geometry" />
        </mxCell>
        <mxCell id="kXX9xbHAI2BbOv3aAVYk-9" value="3" style="shape=or;whiteSpace=wrap;html=1;rotation=0;align=left;fillColor=#f5f5f5;strokeColor=#666666;fontColor=#333333;" parent="kXX9xbHAI2BbOv3aAVYk-6" vertex="1">
          <mxGeometry x="49" y="23" width="20" height="20" as="geometry" />
        </mxCell>
        <mxCell id="kXX9xbHAI2BbOv3aAVYk-10" value="" style="group;rotation=-45;" parent="1" vertex="1" connectable="0">
          <mxGeometry x="413.99786437626904" y="850" width="68.2842712474619" height="59.67213562373098" as="geometry" />
        </mxCell>
        <mxCell id="kXX9xbHAI2BbOv3aAVYk-11" value="4" style="shape=or;whiteSpace=wrap;html=1;rotation=-135;align=left;fillColor=#f5f5f5;strokeColor=#666666;fontColor=#333333;" parent="kXX9xbHAI2BbOv3aAVYk-10" vertex="1">
          <mxGeometry x="10" y="6" width="20" height="20" as="geometry" />
        </mxCell>
        <mxCell id="kXX9xbHAI2BbOv3aAVYk-12" value="5" style="shape=or;whiteSpace=wrap;html=1;rotation=0;align=left;fillColor=#f5f5f5;strokeColor=#666666;fontColor=#333333;" parent="kXX9xbHAI2BbOv3aAVYk-10" vertex="1">
          <mxGeometry x="50" y="17" width="20" height="20" as="geometry" />
        </mxCell>
        <mxCell id="kXX9xbHAI2BbOv3aAVYk-13" value="&lt;u&gt;6&lt;/u&gt;" style="shape=or;whiteSpace=wrap;html=1;rotation=90;align=left;fillColor=#f5f5f5;strokeColor=#666666;fontColor=#333333;" parent="kXX9xbHAI2BbOv3aAVYk-10" vertex="1">
          <mxGeometry x="21" y="45" width="20" height="20" as="geometry" />
        </mxCell>
        <mxCell id="kXX9xbHAI2BbOv3aAVYk-14" value="" style="group;rotation=-225;" parent="1" vertex="1" connectable="0">
          <mxGeometry x="49.997864376269035" y="-2.842170943040401e-14" width="68.2842712474619" height="59.67213562373098" as="geometry" />
        </mxCell>
        <mxCell id="kXX9xbHAI2BbOv3aAVYk-15" value="10" style="shape=or;whiteSpace=wrap;html=1;rotation=-315;align=left;fillColor=#f5f5f5;strokeColor=#666666;fontColor=#333333;" parent="kXX9xbHAI2BbOv3aAVYk-14" vertex="1">
          <mxGeometry x="38" y="34" width="20" height="20" as="geometry" />
        </mxCell>
        <mxCell id="kXX9xbHAI2BbOv3aAVYk-16" value="11" style="shape=or;whiteSpace=wrap;html=1;rotation=-180;align=left;fillColor=#f5f5f5;strokeColor=#666666;fontColor=#333333;" parent="kXX9xbHAI2BbOv3aAVYk-14" vertex="1">
          <mxGeometry x="-2" y="23" width="20" height="20" as="geometry" />
        </mxCell>
        <mxCell id="kXX9xbHAI2BbOv3aAVYk-17" value="12" style="shape=or;whiteSpace=wrap;html=1;rotation=-90;align=left;fillColor=#f5f5f5;strokeColor=#666666;fontColor=#333333;" parent="kXX9xbHAI2BbOv3aAVYk-14" vertex="1">
          <mxGeometry x="27" y="-6" width="20" height="20" as="geometry" />
        </mxCell>
        <mxCell id="kXX9xbHAI2BbOv3aAVYk-18" value="" style="rounded=1;whiteSpace=wrap;html=1;fillColor=#ffe6cc;strokeColor=#d79b00;arcSize=10;" parent="1" vertex="1">
          <mxGeometry y="900" width="68.79" height="70" as="geometry" />
        </mxCell>
        <mxCell id="kXX9xbHAI2BbOv3aAVYk-19" value="" style="group;rotation=50;" parent="1" vertex="1" connectable="0">
          <mxGeometry x="-116.37213562373095" y="849.9999999999999" width="68.28427124746187" height="64.84000000000003" as="geometry" />
        </mxCell>
        <mxCell id="kXX9xbHAI2BbOv3aAVYk-20" value="7" style="shape=or;whiteSpace=wrap;html=1;rotation=-40;align=left;fillColor=#f5f5f5;strokeColor=#666666;fontColor=#333333;" parent="kXX9xbHAI2BbOv3aAVYk-19" vertex="1">
          <mxGeometry x="38" y="11" width="20" height="20" as="geometry" />
        </mxCell>
        <mxCell id="kXX9xbHAI2BbOv3aAVYk-21" value="8" style="shape=or;whiteSpace=wrap;html=1;rotation=95;align=left;fillColor=#f5f5f5;strokeColor=#666666;fontColor=#333333;" parent="kXX9xbHAI2BbOv3aAVYk-19" vertex="1">
          <mxGeometry x="23" y="49" width="20" height="20" as="geometry" />
        </mxCell>
        <mxCell id="kXX9xbHAI2BbOv3aAVYk-22" value="&lt;u&gt;9&lt;/u&gt;" style="shape=or;whiteSpace=wrap;html=1;rotation=185;align=left;fillColor=#f5f5f5;strokeColor=#666666;fontColor=#333333;" parent="kXX9xbHAI2BbOv3aAVYk-19" vertex="1">
          <mxGeometry x="-4" y="18" width="20" height="20" as="geometry" />
        </mxCell>
        <mxCell id="eFWj7IkkPexeJBA8VoBz-1" value="" style="verticalLabelPosition=bottom;verticalAlign=top;html=1;shape=mxgraph.basic.pie;startAngle=0.8507924086809412;endAngle=0.2482887224766688;fillColor=#f8cecc;strokeColor=#b85450;opacity=50;rotation=75;" vertex="1" parent="1">
          <mxGeometry x="-190.37" y="-79.52" width="100" height="100" as="geometry" />
        </mxCell>
        <mxCell id="eFWj7IkkPexeJBA8VoBz-2" value="144度" style="text;html=1;whiteSpace=wrap;strokeColor=none;fillColor=none;align=center;verticalAlign=middle;rounded=0;" vertex="1" parent="1">
          <mxGeometry x="-79" y="-15" width="60" height="30" as="geometry" />
        </mxCell>
        <mxCell id="eFWj7IkkPexeJBA8VoBz-3" value="" style="ellipse;whiteSpace=wrap;html=1;aspect=fixed;fillColor=#dae8fc;strokeColor=#6c8ebf;" vertex="1" parent="1">
          <mxGeometry x="-99" y="220" width="20" height="20" as="geometry" />
        </mxCell>
        <mxCell id="eFWj7IkkPexeJBA8VoBz-4" value="" style="ellipse;whiteSpace=wrap;html=1;aspect=fixed;fillColor=#dae8fc;strokeColor=#6c8ebf;movable=1;resizable=1;rotatable=1;deletable=1;editable=1;locked=0;connectable=1;" vertex="1" parent="1">
          <mxGeometry x="441.5" y="222.5" width="15" height="15" as="geometry" />
        </mxCell>
        <mxCell id="eFWj7IkkPexeJBA8VoBz-6" value="" style="ellipse;whiteSpace=wrap;html=1;aspect=fixed;fillColor=#dae8fc;strokeColor=#6c8ebf;" vertex="1" parent="1">
          <mxGeometry x="439" y="600" width="20" height="20" as="geometry" />
        </mxCell>
        <mxCell id="eFWj7IkkPexeJBA8VoBz-7" value="" style="ellipse;whiteSpace=wrap;html=1;aspect=fixed;fillColor=#dae8fc;strokeColor=#6c8ebf;" vertex="1" parent="1">
          <mxGeometry x="-99" y="600" width="20" height="20" as="geometry" />
        </mxCell>
        <mxCell id="eFWj7IkkPexeJBA8VoBz-8" value="" style="endArrow=none;html=1;rounded=0;exitX=1;exitY=1;exitDx=0;exitDy=0;" edge="1" parent="1" source="eFWj7IkkPexeJBA8VoBz-3" target="eFWj7IkkPexeJBA8VoBz-6">
          <mxGeometry width="50" height="50" relative="1" as="geometry">
            <mxPoint x="-90" y="230" as="sourcePoint" />
            <mxPoint x="-30" y="280" as="targetPoint" />
          </mxGeometry>
        </mxCell>
        <mxCell id="eFWj7IkkPexeJBA8VoBz-9" value="" style="endArrow=none;html=1;rounded=0;exitX=0;exitY=1;exitDx=0;exitDy=0;entryX=1;entryY=0;entryDx=0;entryDy=0;" edge="1" parent="1" source="eFWj7IkkPexeJBA8VoBz-4" target="eFWj7IkkPexeJBA8VoBz-7">
          <mxGeometry width="50" height="50" relative="1" as="geometry">
            <mxPoint x="310" y="250" as="sourcePoint" />
            <mxPoint x="130" y="580" as="targetPoint" />
          </mxGeometry>
        </mxCell>
        <mxCell id="eFWj7IkkPexeJBA8VoBz-10" value="" style="endArrow=none;html=1;rounded=0;strokeColor=#3333FF;" edge="1" parent="1">
          <mxGeometry width="50" height="50" relative="1" as="geometry">
            <mxPoint x="379" y="280" as="sourcePoint" />
            <mxPoint x="449" y="230" as="targetPoint" />
          </mxGeometry>
        </mxCell>
        <mxCell id="eFWj7IkkPexeJBA8VoBz-11" value="" style="endArrow=none;html=1;rounded=0;strokeColor=#FF33FF;" edge="1" parent="1">
          <mxGeometry width="50" height="50" relative="1" as="geometry">
            <mxPoint x="-90" y="610" as="sourcePoint" />
            <mxPoint x="-20" y="560" as="targetPoint" />
          </mxGeometry>
        </mxCell>
        <mxCell id="eFWj7IkkPexeJBA8VoBz-12" value="" style="endArrow=none;html=1;rounded=0;strokeColor=#00CCCC;" edge="1" parent="1">
          <mxGeometry width="50" height="50" relative="1" as="geometry">
            <mxPoint x="-90" y="230" as="sourcePoint" />
            <mxPoint x="-20" y="280" as="targetPoint" />
          </mxGeometry>
        </mxCell>
        <mxCell id="eFWj7IkkPexeJBA8VoBz-13" value="" style="endArrow=none;html=1;rounded=0;strokeColor=#FF0000;" edge="1" parent="1">
          <mxGeometry width="50" height="50" relative="1" as="geometry">
            <mxPoint x="379" y="560" as="sourcePoint" />
            <mxPoint x="449" y="610" as="targetPoint" />
          </mxGeometry>
        </mxCell>
        <mxCell id="eFWj7IkkPexeJBA8VoBz-14" value="" style="endArrow=none;html=1;rounded=0;strokeColor=#3333FF;" edge="1" parent="1">
          <mxGeometry width="50" height="50" relative="1" as="geometry">
            <mxPoint x="450" y="230" as="sourcePoint" />
            <mxPoint x="480" y="240" as="targetPoint" />
          </mxGeometry>
        </mxCell>
        <mxCell id="eFWj7IkkPexeJBA8VoBz-15" value="" style="rounded=0;whiteSpace=wrap;html=1;fontSize=14;fillColor=#B9E0A5;opacity=50;strokeWidth=3;strokeColor=#994C00;movable=0;resizable=0;rotatable=0;deletable=0;editable=0;locked=1;connectable=0;" vertex="1" parent="1">
          <mxGeometry x="840" y="80" width="680" height="680" as="geometry" />
        </mxCell>
        <mxCell id="eFWj7IkkPexeJBA8VoBz-16" value="" style="rounded=0;whiteSpace=wrap;html=1;fontSize=14;fillColor=#994C00;opacity=50;strokeWidth=3;strokeColor=#6F0000;fontColor=#ffffff;movable=0;resizable=0;rotatable=0;deletable=0;editable=0;locked=1;connectable=0;" vertex="1" parent="1">
          <mxGeometry x="960" y="200" width="440" height="440" as="geometry" />
        </mxCell>
        <mxCell id="eFWj7IkkPexeJBA8VoBz-17" value="" style="ellipse;whiteSpace=wrap;html=1;aspect=fixed;fillColor=#dae8fc;strokeColor=#6c8ebf;movable=0;resizable=0;rotatable=0;deletable=0;editable=0;locked=1;connectable=0;" vertex="1" parent="1">
          <mxGeometry x="950" y="190" width="20" height="20" as="geometry" />
        </mxCell>
        <mxCell id="eFWj7IkkPexeJBA8VoBz-18" value="" style="ellipse;whiteSpace=wrap;html=1;aspect=fixed;fillColor=#dae8fc;strokeColor=#6c8ebf;movable=0;resizable=0;rotatable=0;deletable=0;editable=0;locked=1;connectable=0;" vertex="1" parent="1">
          <mxGeometry x="1392.5" y="192.5" width="15" height="15" as="geometry" />
        </mxCell>
        <mxCell id="eFWj7IkkPexeJBA8VoBz-19" value="" style="ellipse;whiteSpace=wrap;html=1;aspect=fixed;fillColor=#dae8fc;strokeColor=#6c8ebf;movable=0;resizable=0;rotatable=0;deletable=0;editable=0;locked=1;connectable=0;" vertex="1" parent="1">
          <mxGeometry x="1390" y="630" width="20" height="20" as="geometry" />
        </mxCell>
        <mxCell id="eFWj7IkkPexeJBA8VoBz-20" value="" style="ellipse;whiteSpace=wrap;html=1;aspect=fixed;fillColor=#dae8fc;strokeColor=#6c8ebf;movable=0;resizable=0;rotatable=0;deletable=0;editable=0;locked=1;connectable=0;" vertex="1" parent="1">
          <mxGeometry x="950" y="630" width="20" height="20" as="geometry" />
        </mxCell>
        <mxCell id="eFWj7IkkPexeJBA8VoBz-21" value="" style="endArrow=none;html=1;rounded=0;exitX=1;exitY=1;exitDx=0;exitDy=0;" edge="1" parent="1" source="eFWj7IkkPexeJBA8VoBz-17" target="eFWj7IkkPexeJBA8VoBz-19">
          <mxGeometry width="50" height="50" relative="1" as="geometry">
            <mxPoint x="1000" y="225" as="sourcePoint" />
            <mxPoint x="1060" y="275" as="targetPoint" />
          </mxGeometry>
        </mxCell>
        <mxCell id="eFWj7IkkPexeJBA8VoBz-22" value="" style="endArrow=none;html=1;rounded=0;exitX=0;exitY=1;exitDx=0;exitDy=0;entryX=1;entryY=0;entryDx=0;entryDy=0;" edge="1" parent="1" source="eFWj7IkkPexeJBA8VoBz-18" target="eFWj7IkkPexeJBA8VoBz-20">
          <mxGeometry width="50" height="50" relative="1" as="geometry">
            <mxPoint x="1400" y="245" as="sourcePoint" />
            <mxPoint x="1220" y="575" as="targetPoint" />
          </mxGeometry>
        </mxCell>
        <mxCell id="eFWj7IkkPexeJBA8VoBz-23" value="" style="endArrow=none;html=1;rounded=0;strokeColor=#3333FF;" edge="1" parent="1">
          <mxGeometry width="50" height="50" relative="1" as="geometry">
            <mxPoint x="1350" y="250" as="sourcePoint" />
            <mxPoint x="1400" y="200" as="targetPoint" />
          </mxGeometry>
        </mxCell>
        <mxCell id="eFWj7IkkPexeJBA8VoBz-24" value="" style="endArrow=none;html=1;rounded=0;strokeColor=#FF33FF;" edge="1" parent="1">
          <mxGeometry width="50" height="50" relative="1" as="geometry">
            <mxPoint x="960" y="640" as="sourcePoint" />
            <mxPoint x="1010" y="590" as="targetPoint" />
          </mxGeometry>
        </mxCell>
        <mxCell id="eFWj7IkkPexeJBA8VoBz-25" value="" style="endArrow=none;html=1;rounded=0;strokeColor=#00CCCC;" edge="1" parent="1">
          <mxGeometry width="50" height="50" relative="1" as="geometry">
            <mxPoint x="960" y="200" as="sourcePoint" />
            <mxPoint x="1010" y="250" as="targetPoint" />
          </mxGeometry>
        </mxCell>
        <mxCell id="eFWj7IkkPexeJBA8VoBz-26" value="" style="endArrow=none;html=1;rounded=0;strokeColor=#FF0000;" edge="1" parent="1">
          <mxGeometry width="50" height="50" relative="1" as="geometry">
            <mxPoint x="1350" y="590" as="sourcePoint" />
            <mxPoint x="1400" y="640" as="targetPoint" />
          </mxGeometry>
        </mxCell>
        <mxCell id="eFWj7IkkPexeJBA8VoBz-33" value="" style="endArrow=none;html=1;rounded=0;strokeColor=#009900;" edge="1" parent="1">
          <mxGeometry width="50" height="50" relative="1" as="geometry">
            <mxPoint x="1400" y="200" as="sourcePoint" />
            <mxPoint x="1470" y="220" as="targetPoint" />
          </mxGeometry>
        </mxCell>
        <mxCell id="eFWj7IkkPexeJBA8VoBz-34" value="" style="verticalLabelPosition=bottom;verticalAlign=top;html=1;shape=mxgraph.basic.pie;startAngle=0.20872607097798707;endAngle=0.25;fillColor=#f8cecc;strokeColor=#b85450;opacity=50;rotation=-90;" vertex="1" parent="1">
          <mxGeometry x="1540" y="130" width="100" height="100" as="geometry" />
        </mxCell>
        <mxCell id="eFWj7IkkPexeJBA8VoBz-36" value="" style="endArrow=none;html=1;rounded=0;strokeColor=#CCCC00;" edge="1" parent="1">
          <mxGeometry width="50" height="50" relative="1" as="geometry">
            <mxPoint x="890" y="620" as="sourcePoint" />
            <mxPoint x="960" y="640" as="targetPoint" />
          </mxGeometry>
        </mxCell>
        <mxCell id="eFWj7IkkPexeJBA8VoBz-37" value="" style="endArrow=none;html=1;rounded=0;strokeColor=#FF8000;" edge="1" parent="1">
          <mxGeometry width="50" height="50" relative="1" as="geometry">
            <mxPoint x="1380" y="130" as="sourcePoint" />
            <mxPoint x="1400" y="200" as="targetPoint" />
          </mxGeometry>
        </mxCell>
        <mxCell id="eFWj7IkkPexeJBA8VoBz-38" value="" style="verticalLabelPosition=bottom;verticalAlign=top;html=1;shape=mxgraph.basic.pie;startAngle=0.9171828812838926;endAngle=0.25;fillColor=#f8cecc;strokeColor=#b85450;opacity=50;rotation=-105;" vertex="1" parent="1">
          <mxGeometry x="1550" y="160" width="100" height="100" as="geometry" />
        </mxCell>
        <mxCell id="eFWj7IkkPexeJBA8VoBz-44" value="" style="endArrow=none;html=1;rounded=0;strokeColor=#333333;" edge="1" parent="1">
          <mxGeometry width="50" height="50" relative="1" as="geometry">
            <mxPoint x="960" y="640" as="sourcePoint" />
            <mxPoint x="980" y="710" as="targetPoint" />
          </mxGeometry>
        </mxCell>
        <mxCell id="eFWj7IkkPexeJBA8VoBz-45" value="" style="endArrow=none;html=1;rounded=0;strokeColor=#FF8000;" edge="1" parent="1">
          <mxGeometry width="50" height="50" relative="1" as="geometry">
            <mxPoint x="980" y="130" as="sourcePoint" />
            <mxPoint x="960" y="200" as="targetPoint" />
          </mxGeometry>
        </mxCell>
        <mxCell id="eFWj7IkkPexeJBA8VoBz-46" value="" style="endArrow=none;html=1;rounded=0;strokeColor=#009900;" edge="1" parent="1">
          <mxGeometry width="50" height="50" relative="1" as="geometry">
            <mxPoint x="890" y="220" as="sourcePoint" />
            <mxPoint x="960" y="200" as="targetPoint" />
          </mxGeometry>
        </mxCell>
      </root>
    </mxGraphModel>
  </diagram>
</mxfile>
